<mxfile host="app.diagrams.net" agent="Mozilla/5.0 (Windows NT 10.0; Win64; x64) AppleWebKit/537.36 (KHTML, like Gecko) Chrome/141.0.0.0 Safari/537.36" version="28.2.5">
  <diagram id="C5RBs43oDa-KdzZeNtuy" name="Page-1">
    <mxGraphModel grid="1" page="1" gridSize="10" guides="1" tooltips="1" connect="1" arrows="1" fold="1" pageScale="1" pageWidth="827" pageHeight="1169" math="0" shadow="0">
      <root>
        <mxCell id="WIyWlLk6GJQsqaUBKTNV-0" />
        <mxCell id="WIyWlLk6GJQsqaUBKTNV-1" parent="WIyWlLk6GJQsqaUBKTNV-0" />
        <mxCell id="3E2t70ujCxnV7K6uH40n-4" value="" style="edgeStyle=orthogonalEdgeStyle;rounded=0;orthogonalLoop=1;jettySize=auto;html=1;" edge="1" parent="WIyWlLk6GJQsqaUBKTNV-1" source="3E2t70ujCxnV7K6uH40n-0" target="3E2t70ujCxnV7K6uH40n-2">
          <mxGeometry relative="1" as="geometry" />
        </mxCell>
        <mxCell id="3E2t70ujCxnV7K6uH40n-0" value="เริ่ม" style="ellipse;whiteSpace=wrap;html=1;" vertex="1" parent="WIyWlLk6GJQsqaUBKTNV-1">
          <mxGeometry x="310" y="30" width="120" height="80" as="geometry" />
        </mxCell>
        <mxCell id="3E2t70ujCxnV7K6uH40n-1" value="จบ" style="ellipse;whiteSpace=wrap;html=1;" vertex="1" parent="WIyWlLk6GJQsqaUBKTNV-1">
          <mxGeometry x="310" y="1590" width="120" height="80" as="geometry" />
        </mxCell>
        <mxCell id="3E2t70ujCxnV7K6uH40n-7" value="" style="edgeStyle=orthogonalEdgeStyle;rounded=0;orthogonalLoop=1;jettySize=auto;html=1;" edge="1" parent="WIyWlLk6GJQsqaUBKTNV-1" source="3E2t70ujCxnV7K6uH40n-2" target="3E2t70ujCxnV7K6uH40n-3">
          <mxGeometry relative="1" as="geometry" />
        </mxCell>
        <mxCell id="3E2t70ujCxnV7K6uH40n-2" value="&lt;div style=&quot;text-align: justify;&quot;&gt;&lt;br&gt;&lt;/div&gt;&lt;div style=&quot;text-align: justify;&quot;&gt;&lt;span style=&quot;background-color: transparent; color: light-dark(rgb(0, 0, 0), rgb(255, 255, 255));&quot;&gt;เตรียมวัตถุดิบต่างๆ&lt;/span&gt;&lt;/div&gt;&lt;div style=&quot;text-align: justify;&quot;&gt;&lt;br&gt;&lt;/div&gt;" style="rounded=0;whiteSpace=wrap;html=1;" vertex="1" parent="WIyWlLk6GJQsqaUBKTNV-1">
          <mxGeometry x="310" y="130" width="120" height="60" as="geometry" />
        </mxCell>
        <mxCell id="3E2t70ujCxnV7K6uH40n-8" value="" style="edgeStyle=orthogonalEdgeStyle;rounded=0;orthogonalLoop=1;jettySize=auto;html=1;" edge="1" parent="WIyWlLk6GJQsqaUBKTNV-1" source="3E2t70ujCxnV7K6uH40n-3" target="3E2t70ujCxnV7K6uH40n-6">
          <mxGeometry relative="1" as="geometry" />
        </mxCell>
        <mxCell id="3E2t70ujCxnV7K6uH40n-3" value="&lt;span style=&quot;top: -3.61em;&quot; class=&quot;&quot;&gt;&lt;span class=&quot;mord&quot;&gt;&lt;span class=&quot;mord text&quot;&gt;&lt;span class=&quot;mord brahmic_fallback&quot;&gt;ข้าวสวย&lt;/span&gt;&lt;span class=&quot;mord&quot;&gt;,&amp;nbsp;&lt;/span&gt;&lt;span class=&quot;mord brahmic_fallback&quot;&gt;หมูกรอบ&lt;/span&gt;&lt;span class=&quot;mord&quot;&gt;,&amp;nbsp;&lt;/span&gt;&lt;span class=&quot;mord brahmic_fallback&quot;&gt;ไข่เยี่ยวม้า&lt;/span&gt;&lt;span class=&quot;mord&quot;&gt;,&amp;nbsp;&lt;/span&gt;&lt;span class=&quot;mord brahmic_fallback&quot;&gt;ใบกะเพรา&lt;/span&gt;&lt;span class=&quot;mord&quot;&gt;,&amp;nbsp;&lt;/span&gt;&lt;/span&gt;&lt;/span&gt;&lt;/span&gt;&lt;span style=&quot;top: -2.41em;&quot; class=&quot;&quot;&gt;&lt;span class=&quot;mord&quot;&gt;&lt;span class=&quot;mord text&quot;&gt;&lt;span class=&quot;mord brahmic_fallback&quot;&gt;พริกขี้หนู&lt;/span&gt;&lt;span class=&quot;mord&quot;&gt;,&amp;nbsp;&lt;/span&gt;&lt;span class=&quot;mord brahmic_fallback&quot;&gt;กระเทียม&lt;/span&gt;&lt;span class=&quot;mord&quot;&gt;,&amp;nbsp;&lt;/span&gt;&lt;span class=&quot;mord brahmic_fallback&quot;&gt;เครื่องปรุงรส&lt;/span&gt;&lt;/span&gt;&lt;/span&gt;&lt;/span&gt;" style="rounded=0;whiteSpace=wrap;html=1;" vertex="1" parent="WIyWlLk6GJQsqaUBKTNV-1">
          <mxGeometry x="257" y="210" width="226" height="60" as="geometry" />
        </mxCell>
        <mxCell id="3E2t70ujCxnV7K6uH40n-12" value="" style="edgeStyle=orthogonalEdgeStyle;rounded=0;orthogonalLoop=1;jettySize=auto;html=1;" edge="1" parent="WIyWlLk6GJQsqaUBKTNV-1" source="3E2t70ujCxnV7K6uH40n-6" target="3E2t70ujCxnV7K6uH40n-11">
          <mxGeometry relative="1" as="geometry" />
        </mxCell>
        <mxCell id="3E2t70ujCxnV7K6uH40n-6" value="&lt;div style=&quot;&quot;&gt;&lt;span style=&quot;background-color: transparent; color: light-dark(rgb(0, 0, 0), rgb(255, 255, 255)); height: 3.89em;&quot; class=&quot;vlist&quot;&gt;&lt;span style=&quot;top: -5.85em;&quot; class=&quot;&quot;&gt;&lt;span class=&quot;mtable&quot;&gt;&lt;span class=&quot;col-align-c&quot;&gt;&lt;span class=&quot;vlist-t vlist-t2&quot;&gt;&lt;span class=&quot;vlist-r&quot;&gt;&lt;span style=&quot;height: 3.85em;&quot; class=&quot;vlist&quot;&gt;&lt;span style=&quot;top: -1.21em;&quot; class=&quot;&quot;&gt;&lt;span class=&quot;mord&quot;&gt;&lt;span class=&quot;mord text&quot;&gt;&lt;span class=&quot;mord brahmic_fallback&quot;&gt;เตรียมอุปกรณ์&lt;/span&gt;&lt;/span&gt;&lt;/span&gt;&lt;/span&gt;&lt;/span&gt;&lt;/span&gt;&lt;/span&gt;&lt;/span&gt;&lt;/span&gt;&lt;/span&gt;&lt;/span&gt;&lt;/div&gt;&lt;div style=&quot;text-align: justify;&quot;&gt;&lt;p&gt;&lt;/p&gt;&lt;/div&gt;" style="rounded=0;whiteSpace=wrap;html=1;" vertex="1" parent="WIyWlLk6GJQsqaUBKTNV-1">
          <mxGeometry x="310" y="290" width="120" height="50" as="geometry" />
        </mxCell>
        <mxCell id="3E2t70ujCxnV7K6uH40n-14" value="" style="edgeStyle=orthogonalEdgeStyle;rounded=0;orthogonalLoop=1;jettySize=auto;html=1;" edge="1" parent="WIyWlLk6GJQsqaUBKTNV-1" source="3E2t70ujCxnV7K6uH40n-11" target="3E2t70ujCxnV7K6uH40n-13">
          <mxGeometry relative="1" as="geometry" />
        </mxCell>
        <mxCell id="3E2t70ujCxnV7K6uH40n-11" value="&lt;div style=&quot;text-align: justify;&quot;&gt;&lt;span style=&quot;background-color: transparent; color: light-dark(rgb(0, 0, 0), rgb(255, 255, 255)); text-align: center;&quot;&gt;ครก, กระทะ, ตะหลิว, จาน/ชาม, มีด, เขียง&lt;/span&gt;&lt;/div&gt;" style="rounded=0;whiteSpace=wrap;html=1;" vertex="1" parent="WIyWlLk6GJQsqaUBKTNV-1">
          <mxGeometry x="258.5" y="360" width="223" height="60" as="geometry" />
        </mxCell>
        <mxCell id="3E2t70ujCxnV7K6uH40n-16" value="" style="edgeStyle=orthogonalEdgeStyle;rounded=0;orthogonalLoop=1;jettySize=auto;html=1;" edge="1" parent="WIyWlLk6GJQsqaUBKTNV-1" source="3E2t70ujCxnV7K6uH40n-13" target="3E2t70ujCxnV7K6uH40n-15">
          <mxGeometry relative="1" as="geometry" />
        </mxCell>
        <mxCell id="3E2t70ujCxnV7K6uH40n-13" value="ตำพริกขี้หนูและกระเทียมให้เข้ากัน" style="rounded=0;whiteSpace=wrap;html=1;" vertex="1" parent="WIyWlLk6GJQsqaUBKTNV-1">
          <mxGeometry x="310" y="440" width="120" height="60" as="geometry" />
        </mxCell>
        <mxCell id="3E2t70ujCxnV7K6uH40n-21" value="" style="edgeStyle=orthogonalEdgeStyle;rounded=0;orthogonalLoop=1;jettySize=auto;html=1;" edge="1" parent="WIyWlLk6GJQsqaUBKTNV-1" source="3E2t70ujCxnV7K6uH40n-15" target="3E2t70ujCxnV7K6uH40n-18">
          <mxGeometry relative="1" as="geometry" />
        </mxCell>
        <mxCell id="3E2t70ujCxnV7K6uH40n-15" value="ตั้งกระทะใส่น้ำมัน" style="rounded=0;whiteSpace=wrap;html=1;" vertex="1" parent="WIyWlLk6GJQsqaUBKTNV-1">
          <mxGeometry x="310" y="520" width="120" height="60" as="geometry" />
        </mxCell>
        <mxCell id="3E2t70ujCxnV7K6uH40n-20" style="edgeStyle=orthogonalEdgeStyle;rounded=0;orthogonalLoop=1;jettySize=auto;html=1;entryX=0;entryY=0.5;entryDx=0;entryDy=0;" edge="1" parent="WIyWlLk6GJQsqaUBKTNV-1" source="3E2t70ujCxnV7K6uH40n-17" target="3E2t70ujCxnV7K6uH40n-18">
          <mxGeometry relative="1" as="geometry">
            <Array as="points">
              <mxPoint x="283" y="735" />
              <mxPoint x="283" y="630" />
            </Array>
          </mxGeometry>
        </mxCell>
        <mxCell id="3E2t70ujCxnV7K6uH40n-23" value="" style="edgeStyle=orthogonalEdgeStyle;rounded=0;orthogonalLoop=1;jettySize=auto;html=1;" edge="1" parent="WIyWlLk6GJQsqaUBKTNV-1" source="3E2t70ujCxnV7K6uH40n-17" target="3E2t70ujCxnV7K6uH40n-22">
          <mxGeometry relative="1" as="geometry" />
        </mxCell>
        <mxCell id="3E2t70ujCxnV7K6uH40n-17" value="กระทะร้อนหรือยัง?" style="rhombus;whiteSpace=wrap;html=1;" vertex="1" parent="WIyWlLk6GJQsqaUBKTNV-1">
          <mxGeometry x="302.5" y="680" width="135" height="110" as="geometry" />
        </mxCell>
        <mxCell id="3E2t70ujCxnV7K6uH40n-19" value="" style="edgeStyle=orthogonalEdgeStyle;rounded=0;orthogonalLoop=1;jettySize=auto;html=1;" edge="1" parent="WIyWlLk6GJQsqaUBKTNV-1" source="3E2t70ujCxnV7K6uH40n-18" target="3E2t70ujCxnV7K6uH40n-17">
          <mxGeometry relative="1" as="geometry" />
        </mxCell>
        <mxCell id="3E2t70ujCxnV7K6uH40n-18" value="รอกระทะร้อน" style="rounded=0;whiteSpace=wrap;html=1;" vertex="1" parent="WIyWlLk6GJQsqaUBKTNV-1">
          <mxGeometry x="310" y="600" width="120" height="60" as="geometry" />
        </mxCell>
        <mxCell id="3E2t70ujCxnV7K6uH40n-27" value="" style="edgeStyle=orthogonalEdgeStyle;rounded=0;orthogonalLoop=1;jettySize=auto;html=1;" edge="1" parent="WIyWlLk6GJQsqaUBKTNV-1" source="3E2t70ujCxnV7K6uH40n-22" target="3E2t70ujCxnV7K6uH40n-25">
          <mxGeometry relative="1" as="geometry" />
        </mxCell>
        <mxCell id="3E2t70ujCxnV7K6uH40n-22" value="นำไข่เยี่ยวม้าและใบกะเพราทอดให้กรอบ" style="rounded=0;whiteSpace=wrap;html=1;" vertex="1" parent="WIyWlLk6GJQsqaUBKTNV-1">
          <mxGeometry x="310" y="810" width="120" height="60" as="geometry" />
        </mxCell>
        <mxCell id="3E2t70ujCxnV7K6uH40n-32" value="" style="edgeStyle=orthogonalEdgeStyle;rounded=0;orthogonalLoop=1;jettySize=auto;html=1;" edge="1" parent="WIyWlLk6GJQsqaUBKTNV-1" source="3E2t70ujCxnV7K6uH40n-24" target="3E2t70ujCxnV7K6uH40n-31">
          <mxGeometry relative="1" as="geometry" />
        </mxCell>
        <mxCell id="3E2t70ujCxnV7K6uH40n-24" value="เมื่อทอดเสร็จ นำพริกกระเทียมที่โขลกไว้ลงผัดให้หอม" style="rounded=0;whiteSpace=wrap;html=1;" vertex="1" parent="WIyWlLk6GJQsqaUBKTNV-1">
          <mxGeometry x="310" y="1000" width="120" height="60" as="geometry" />
        </mxCell>
        <mxCell id="3E2t70ujCxnV7K6uH40n-28" value="" style="edgeStyle=orthogonalEdgeStyle;rounded=0;orthogonalLoop=1;jettySize=auto;html=1;" edge="1" parent="WIyWlLk6GJQsqaUBKTNV-1" source="3E2t70ujCxnV7K6uH40n-25" target="3E2t70ujCxnV7K6uH40n-24">
          <mxGeometry relative="1" as="geometry" />
        </mxCell>
        <mxCell id="3E2t70ujCxnV7K6uH40n-38" style="edgeStyle=orthogonalEdgeStyle;rounded=0;orthogonalLoop=1;jettySize=auto;html=1;entryX=0;entryY=0.5;entryDx=0;entryDy=0;" edge="1" parent="WIyWlLk6GJQsqaUBKTNV-1" source="3E2t70ujCxnV7K6uH40n-25" target="3E2t70ujCxnV7K6uH40n-22">
          <mxGeometry relative="1" as="geometry">
            <Array as="points">
              <mxPoint x="283" y="935" />
              <mxPoint x="283" y="840" />
            </Array>
          </mxGeometry>
        </mxCell>
        <mxCell id="3E2t70ujCxnV7K6uH40n-25" value="กรอบหรือยัง" style="rhombus;whiteSpace=wrap;html=1;" vertex="1" parent="WIyWlLk6GJQsqaUBKTNV-1">
          <mxGeometry x="302.5" y="890" width="135" height="90" as="geometry" />
        </mxCell>
        <mxCell id="3E2t70ujCxnV7K6uH40n-34" value="" style="edgeStyle=orthogonalEdgeStyle;rounded=0;orthogonalLoop=1;jettySize=auto;html=1;" edge="1" parent="WIyWlLk6GJQsqaUBKTNV-1" source="3E2t70ujCxnV7K6uH40n-31" target="3E2t70ujCxnV7K6uH40n-33">
          <mxGeometry relative="1" as="geometry" />
        </mxCell>
        <mxCell id="3E2t70ujCxnV7K6uH40n-31" value="ใส่หมูกอบลงไปผัด" style="rounded=0;whiteSpace=wrap;html=1;" vertex="1" parent="WIyWlLk6GJQsqaUBKTNV-1">
          <mxGeometry x="310" y="1080" width="120" height="60" as="geometry" />
        </mxCell>
        <mxCell id="3E2t70ujCxnV7K6uH40n-36" value="" style="edgeStyle=orthogonalEdgeStyle;rounded=0;orthogonalLoop=1;jettySize=auto;html=1;" edge="1" parent="WIyWlLk6GJQsqaUBKTNV-1" source="3E2t70ujCxnV7K6uH40n-33" target="3E2t70ujCxnV7K6uH40n-35">
          <mxGeometry relative="1" as="geometry" />
        </mxCell>
        <mxCell id="3E2t70ujCxnV7K6uH40n-33" value="ปรุงรสด้วยซอสที่เตรียมไว้" style="rounded=0;whiteSpace=wrap;html=1;" vertex="1" parent="WIyWlLk6GJQsqaUBKTNV-1">
          <mxGeometry x="300" y="1160" width="140" height="60" as="geometry" />
        </mxCell>
        <mxCell id="3E2t70ujCxnV7K6uH40n-40" value="" style="edgeStyle=orthogonalEdgeStyle;rounded=0;orthogonalLoop=1;jettySize=auto;html=1;" edge="1" parent="WIyWlLk6GJQsqaUBKTNV-1" source="3E2t70ujCxnV7K6uH40n-41" target="3E2t70ujCxnV7K6uH40n-39">
          <mxGeometry relative="1" as="geometry" />
        </mxCell>
        <mxCell id="3E2t70ujCxnV7K6uH40n-35" value="นำไข่เยี่ยวม้าและใบกะเพราทอดแล้วลงไปผัดให้เข้ากัน" style="rounded=0;whiteSpace=wrap;html=1;" vertex="1" parent="WIyWlLk6GJQsqaUBKTNV-1">
          <mxGeometry x="285" y="1240" width="170" height="60" as="geometry" />
        </mxCell>
        <mxCell id="3E2t70ujCxnV7K6uH40n-45" value="" style="edgeStyle=orthogonalEdgeStyle;rounded=0;orthogonalLoop=1;jettySize=auto;html=1;" edge="1" parent="WIyWlLk6GJQsqaUBKTNV-1" source="3E2t70ujCxnV7K6uH40n-39" target="3E2t70ujCxnV7K6uH40n-44">
          <mxGeometry relative="1" as="geometry" />
        </mxCell>
        <mxCell id="3E2t70ujCxnV7K6uH40n-39" value="ราดลงบนข้าวที่ใส่จาน/ชามเรียบร้อยแล้ว" style="rounded=0;whiteSpace=wrap;html=1;" vertex="1" parent="WIyWlLk6GJQsqaUBKTNV-1">
          <mxGeometry x="290" y="1440" width="160" height="60" as="geometry" />
        </mxCell>
        <mxCell id="3E2t70ujCxnV7K6uH40n-42" value="" style="edgeStyle=orthogonalEdgeStyle;rounded=0;orthogonalLoop=1;jettySize=auto;html=1;" edge="1" parent="WIyWlLk6GJQsqaUBKTNV-1" source="3E2t70ujCxnV7K6uH40n-35" target="3E2t70ujCxnV7K6uH40n-41">
          <mxGeometry relative="1" as="geometry">
            <mxPoint x="370" y="1300" as="sourcePoint" />
            <mxPoint x="370" y="1390" as="targetPoint" />
          </mxGeometry>
        </mxCell>
        <mxCell id="3E2t70ujCxnV7K6uH40n-43" style="edgeStyle=orthogonalEdgeStyle;rounded=0;orthogonalLoop=1;jettySize=auto;html=1;entryX=0;entryY=0.5;entryDx=0;entryDy=0;" edge="1" parent="WIyWlLk6GJQsqaUBKTNV-1" source="3E2t70ujCxnV7K6uH40n-41" target="3E2t70ujCxnV7K6uH40n-35">
          <mxGeometry relative="1" as="geometry">
            <Array as="points">
              <mxPoint x="265" y="1370" />
              <mxPoint x="265" y="1270" />
            </Array>
          </mxGeometry>
        </mxCell>
        <mxCell id="3E2t70ujCxnV7K6uH40n-41" value="ผัดจนเข้ากันหรือยัง" style="rhombus;whiteSpace=wrap;html=1;" vertex="1" parent="WIyWlLk6GJQsqaUBKTNV-1">
          <mxGeometry x="310" y="1320" width="120" height="100" as="geometry" />
        </mxCell>
        <mxCell id="3E2t70ujCxnV7K6uH40n-46" value="" style="edgeStyle=orthogonalEdgeStyle;rounded=0;orthogonalLoop=1;jettySize=auto;html=1;" edge="1" parent="WIyWlLk6GJQsqaUBKTNV-1" source="3E2t70ujCxnV7K6uH40n-44" target="3E2t70ujCxnV7K6uH40n-1">
          <mxGeometry relative="1" as="geometry" />
        </mxCell>
        <mxCell id="3E2t70ujCxnV7K6uH40n-44" value="กิน" style="rounded=0;whiteSpace=wrap;html=1;" vertex="1" parent="WIyWlLk6GJQsqaUBKTNV-1">
          <mxGeometry x="310" y="1520" width="120" height="40" as="geometry" />
        </mxCell>
      </root>
    </mxGraphModel>
  </diagram>
</mxfile>
